<svg width="15" height="16" viewBox="0 0 15 16" fill="none" xmlns="http://www.w3.org/2000/svg">
<path d="M6.65236 0.5C6.5236 0.5 6.43777 0.575094 6.37339 0.668961L0.0643777 13.4537C0.0214592 13.5476 0 13.6977 0 13.8104V15.331C0 15.4249 0.0858369 15.5 0.193133 15.5H14.8069C14.9142 15.5 15 15.4249 15 15.331V13.8104C15 13.7165 14.9785 13.5476 14.9356 13.4537L8.62661 0.668961C8.58369 0.575094 8.47639 0.5 8.34764 0.5H6.60944L6.65236 0.5ZM6.45923 6.13204H8.60515V9.88673H6.45923V6.13204ZM6.45923 11.7641H8.60515V13.6414H6.45923V11.7641Z" fill="white"/>
</svg>
